<svg xmlns="http://www.w3.org/2000/svg" viewBox="0 0 600 566" width="120" height="113" fill="#9aa0a6">
  <g transform="translate(0,566) scale(0.1,-0.1)">
    <path d="M2228 4575 c-3 -3 -80 -11 -169 -16 -237 -13 -291 -25 -351 -79 -43
-39 -34 -120 20 -175 l37 -37 70 5 c39 3 176 15 305 26 552 48 1077 -5 1330
-135 14 -7 63 -30 110 -52 328 -152 517 -464 523 -862 l2 -135 -69 -3 c-86 -4
-82 -9 -96 126 -34 349 -195 578 -533 754 -170 89 -581 168 -877 168 -112 0
-637 -42 -700 -56 -97 -21 -127 -163 -49 -229 30 -24 108 -43 129 -30 7 4 58
11 114 15 55 5 154 14 218 20 220 22 550 7 748 -35 36 -8 76 -16 90 -18 14 -3
52 -15 85 -26 57 -21 73 -28 163 -68 210 -95 363 -342 350 -566 l-3 -52 -540
-6 c-442 -5 -554 -9 -615 -22 -41 -9 -95 -21 -120 -26 -163 -35 -452 -155
-547 -227 -21 -16 -58 -43 -82 -59 -201 -134 -390 -430 -427 -665 -12 -79 -5
-290 11 -345 35 -115 50 -151 88 -219 22 -39 46 -82 53 -95 41 -77 224 -253
334 -322 36 -23 76 -49 90 -58 23 -16 107 -57 190 -94 383 -172 1046 -190
1366 -37 22 11 46 20 52 20 11 0 104 46 162 80 113 68 247 174 328 261 114
123 211 272 256 394 8 22 24 65 36 95 55 141 62 267 57 990 -4 714 -3 709 -76
921 -45 132 -144 290 -247 395 -248 251 -613 410 -1069 465 -102 12 -737 24
-747 14z m786 -1760 c301 -91 374 -480 127 -668 -337 -257 -779 156 -545 509
94 141 263 206 418 159z"/>
  </g>
</svg>
